<svg>

<symbol id="Like" width="55" height="55" viewBox="0 0 55 55" fill="none" xmlns="http://www.w3.org/2000/svg">
<g filter="url(#filter0_i_1_44)">
<path fill-rule="evenodd" clip-rule="evenodd" d="M2.29163 21.7708C2.29163 13.5441 8.96072 6.875 17.1875 6.875C21.191 6.875 24.8253 8.45583 27.5 11.0222C30.1746 8.45583 33.8089 6.875 37.8125 6.875C46.0392 6.875 52.7083 13.5441 52.7083 21.7708C52.7083 28.9532 48.5009 35.5194 43.5945 40.4743C38.6658 45.4517 32.6381 49.2062 28.2227 50.6735C27.7535 50.8294 27.2464 50.8294 26.7773 50.6735C22.3618 49.2062 16.3341 45.4517 11.4054 40.4743C6.49904 35.5194 2.29163 28.9532 2.29163 21.7708ZM17.1875 11.4583C11.492 11.4583 6.87496 16.0754 6.87496 21.7708C6.87496 27.1927 10.1155 32.6577 14.6622 37.2494C18.8937 41.5226 23.9177 44.6923 27.5 46.065C31.0822 44.6923 36.1063 41.5226 40.3377 37.2494C44.8845 32.6577 48.125 27.1927 48.125 21.7708C48.125 16.0754 43.5079 11.4583 37.8125 11.4583C34.3266 11.4583 31.2438 13.1858 29.3737 15.8415C28.9444 16.4511 28.2455 16.8137 27.5 16.8137C26.7544 16.8137 26.0555 16.4511 25.6263 15.8415C23.7561 13.1858 20.6734 11.4583 17.1875 11.4583Z" fill="white"/>
</g>
<defs>
<filter id="filter0_i_1_44" x="0" y="0" width="55" height="59" filterUnits="userSpaceOnUse" color-interpolation-filters="sRGB">
<feFlood flood-opacity="0" result="BackgroundImageFix"/>
<feBlend mode="normal" in="SourceGraphic" in2="BackgroundImageFix" result="shape"/>
<feColorMatrix in="SourceAlpha" type="matrix" values="0 0 0 0 0 0 0 0 0 0 0 0 0 0 0 0 0 0 127 0" result="hardAlpha"/>
<feOffset dy="4"/>
<feGaussianBlur stdDeviation="2"/>
<feComposite in2="hardAlpha" operator="arithmetic" k2="-1" k3="1"/>
<feColorMatrix type="matrix" values="0 0 0 0 0 0 0 0 0 0 0 0 0 0 0 0 0 0 0.5 0"/>
<feBlend mode="normal" in2="shape" result="effect1_innerShadow_1_44"/>
</filter>
</defs>
</symbol>


<symbol id="Logo" width="80" height="80" viewBox="0 0 80 80" fill="none" xmlns="http://www.w3.org/2000/svg">
<g filter="url(#filter0_i_1_120)">
<path fill-rule="evenodd" clip-rule="evenodd" d="M30 6.66666C30 4.82571 31.4924 3.33333 33.3333 3.33333H46.6667C48.5076 3.33333 50 4.82571 50 6.66666V25C50 25.884 49.6488 26.7319 49.0237 27.357L42.357 34.0237C41.0553 35.3254 38.9447 35.3254 37.643 34.0237L30.9763 27.357C30.3512 26.7319 30 25.884 30 25V6.66666ZM36.6667 9.99999V23.6193L40 26.9526L43.3333 23.6193V9.99999H36.6667Z" fill="white"/>
<path fill-rule="evenodd" clip-rule="evenodd" d="M37.643 45.9763C38.9447 44.6746 41.0553 44.6746 42.357 45.9763L49.0237 52.643C49.6488 53.2681 50 54.1159 50 55V73.3333C50 75.1743 48.5076 76.6667 46.6667 76.6667H33.3333C31.4924 76.6667 30 75.1743 30 73.3333V55C30 54.1159 30.3512 53.2681 30.9763 52.643L37.643 45.9763ZM36.6667 56.3807V70H43.3333V56.3807L40 53.0474L36.6667 56.3807Z" fill="white"/>
<path fill-rule="evenodd" clip-rule="evenodd" d="M52.643 30.9763C53.2681 30.3512 54.1159 30 55 30H73.3333C75.1743 30 76.6667 31.4924 76.6667 33.3333V46.6667C76.6667 48.5076 75.1743 50 73.3333 50H55C54.1159 50 53.2681 49.6488 52.643 49.0237L45.9763 42.357C44.6746 41.0553 44.6746 38.9447 45.9763 37.643L52.643 30.9763ZM56.3807 36.6667L53.0474 40L56.3807 43.3333H70V36.6667H56.3807Z" fill="white"/>
<path fill-rule="evenodd" clip-rule="evenodd" d="M3.33337 33.3333C3.33337 31.4924 4.82576 30 6.66671 30H25C25.8841 30 26.7319 30.3512 27.3571 30.9763L34.0237 37.643C35.3255 38.9447 35.3255 41.0553 34.0237 42.357L27.3571 49.0237C26.7319 49.6488 25.8841 50 25 50H6.66671C4.82576 50 3.33337 48.5076 3.33337 46.6667V33.3333ZM10 36.6667V43.3333H23.6193L26.9527 40L23.6193 36.6667H10Z" fill="white"/>
</g>
<defs>
<filter id="filter0_i_1_120" x="0" y="0" width="82" height="82" filterUnits="userSpaceOnUse" color-interpolation-filters="sRGB">
<feFlood flood-opacity="0" result="BackgroundImageFix"/>
<feBlend mode="normal" in="SourceGraphic" in2="BackgroundImageFix" result="shape"/>
<feColorMatrix in="SourceAlpha" type="matrix" values="0 0 0 0 0 0 0 0 0 0 0 0 0 0 0 0 0 0 127 0" result="hardAlpha"/>
<feOffset dx="2" dy="2"/>
<feGaussianBlur stdDeviation="1"/>
<feComposite in2="hardAlpha" operator="arithmetic" k2="-1" k3="1"/>
<feColorMatrix type="matrix" values="0 0 0 0 0 0 0 0 0 0 0 0 0 0 0 0 0 0 0.5 0"/>
<feBlend mode="normal" in2="shape" result="effect1_innerShadow_1_120"/>
</filter>
</defs>
</symbol>


<symbol id="Moon" width="40" height="40" viewBox="0 0 40 40" fill="none" xmlns="http://www.w3.org/2000/svg">
<path fill-rule="evenodd" clip-rule="evenodd" d="M17.4238 5.22033C10.367 6.44173 4.99996 12.5941 4.99996 20C4.99996 28.2842 11.7157 35 20 35C27.4058 35 33.5582 29.6329 34.7796 22.5761C32.556 24.8211 29.4715 26.212 26.0605 26.212C19.2825 26.212 13.7879 20.7174 13.7879 13.9394C13.7879 10.5284 15.1788 7.4439 17.4238 5.22033ZM1.66663 20C1.66663 9.87473 9.87473 1.66663 20 1.66663C21.2705 1.66663 22.5127 1.79613 23.7132 2.04322C24.472 2.1994 25.0231 2.85785 25.0433 3.6323C25.0635 4.40675 24.5473 5.09297 23.7977 5.28842C19.9553 6.2902 17.1212 9.78589 17.1212 13.9394C17.1212 18.8765 21.1234 22.8787 26.0605 22.8787C30.214 22.8787 33.7097 20.0446 34.7114 16.2023C34.9069 15.4526 35.5931 14.9365 36.3675 14.9566C37.142 14.9767 37.8004 15.5279 37.9566 16.2867C38.2038 17.4872 38.3333 18.7294 38.3333 20C38.3333 30.1252 30.1252 38.3333 20 38.3333C9.87473 38.3333 1.66663 30.1252 1.66663 20Z" fill="#5B5A5A"/>
</symbol>



<symbol id="Puzzle" width="55" height="55" viewBox="0 0 55 55" fill="none" xmlns="http://www.w3.org/2000/svg">
<g filter="url(#filter0_i_1_39)">
<path fill-rule="evenodd" clip-rule="evenodd" d="M21.7708 6.87502C19.2395 6.87502 17.1875 8.92705 17.1875 11.4584V13.75C17.1875 15.0157 16.1614 16.0417 14.8958 16.0417H6.87496V25.2084H9.16663C14.2292 25.2084 18.3333 29.3124 18.3333 34.375C18.3333 39.4376 14.2292 43.5417 9.16663 43.5417H6.87496V48.125H36.6666V41.25C36.6666 39.9844 37.6926 38.9584 38.9583 38.9584H43.5416C46.0729 38.9584 48.125 36.9063 48.125 34.375C48.125 31.8437 46.0729 29.7917 43.5416 29.7917H38.9583C37.6926 29.7917 36.6666 28.7657 36.6666 27.5V16.0417H28.6458C27.3801 16.0417 26.3541 15.0157 26.3541 13.75V11.4584C26.3541 8.92705 24.3021 6.87502 21.7708 6.87502ZM12.6041 11.4584C12.6041 6.39574 16.7082 2.29169 21.7708 2.29169C26.8334 2.29169 30.9375 6.39574 30.9375 11.4584H38.9583C40.2239 11.4584 41.25 12.4844 41.25 13.75V25.2084H43.5416C48.6042 25.2084 52.7083 29.3124 52.7083 34.375C52.7083 39.4376 48.6042 43.5417 43.5416 43.5417H41.25V50.4167C41.25 51.6823 40.2239 52.7084 38.9583 52.7084H4.58329C3.31764 52.7084 2.29163 51.6823 2.29163 50.4167V41.25C2.29163 39.9844 3.31764 38.9584 4.58329 38.9584H9.16663C11.6979 38.9584 13.75 36.9063 13.75 34.375C13.75 31.8437 11.6979 29.7917 9.16663 29.7917H4.58329C3.31764 29.7917 2.29163 28.7657 2.29163 27.5V13.75C2.29163 12.4844 3.31764 11.4584 4.58329 11.4584H12.6041Z" fill="white"/>
</g>
<defs>
<filter id="filter0_i_1_39" x="0" y="0" width="55" height="59" filterUnits="userSpaceOnUse" color-interpolation-filters="sRGB">
<feFlood flood-opacity="0" result="BackgroundImageFix"/>
<feBlend mode="normal" in="SourceGraphic" in2="BackgroundImageFix" result="shape"/>
<feColorMatrix in="SourceAlpha" type="matrix" values="0 0 0 0 0 0 0 0 0 0 0 0 0 0 0 0 0 0 127 0" result="hardAlpha"/>
<feOffset dy="4"/>
<feGaussianBlur stdDeviation="2"/>
<feComposite in2="hardAlpha" operator="arithmetic" k2="-1" k3="1"/>
<feColorMatrix type="matrix" values="0 0 0 0 0 0 0 0 0 0 0 0 0 0 0 0 0 0 0.5 0"/>
<feBlend mode="normal" in2="shape" result="effect1_innerShadow_1_39"/>
</filter>
</defs>
</symbol>




<symbol id="Settings" width="55" height="55" viewBox="0 0 55 55" fill="none" xmlns="http://www.w3.org/2000/svg">
<g filter="url(#filter0_i_1_41)">
<path fill-rule="evenodd" clip-rule="evenodd" d="M20.7608 3.20332C21.81 2.91288 22.9188 3.40072 23.4135 4.3705C24.1744 5.86193 25.7209 6.87515 27.5 6.87515C29.279 6.87515 30.8255 5.86193 31.5864 4.3705C32.0812 3.40072 33.1899 2.91288 34.2391 3.20332C38.1899 4.29696 41.7482 6.32662 44.6614 9.03541C45.4028 9.72479 45.6041 10.819 45.1564 11.727C44.8568 12.3346 44.6875 13.0193 44.6875 13.7501C44.6875 16.2814 46.7395 18.3334 49.2708 18.3334L49.3345 18.333C50.3476 18.3185 51.25 18.9711 51.5536 19.9377C52.3044 22.3279 52.7083 24.869 52.7083 27.5001C52.7083 29.2367 52.5324 30.9345 52.1966 32.576C51.9614 33.7259 50.8954 34.5123 49.7273 34.3975C49.5772 34.3827 49.425 34.3751 49.2708 34.3751C46.7395 34.3751 44.6875 36.4272 44.6875 38.9584C44.6875 40.0858 45.0915 41.1128 45.7654 41.9115C46.5223 42.8086 46.479 44.1326 45.6651 44.9783C42.6905 48.0693 38.9312 50.4049 34.7037 51.6635C33.5078 52.0195 32.2469 51.3534 31.8669 50.1649C31.2754 48.3146 29.5406 46.9793 27.5 46.9793C25.4593 46.9793 23.7245 48.3146 23.133 50.1649C22.7531 51.3534 21.4921 52.0195 20.2962 51.6635C16.0687 50.4049 12.3095 48.0693 9.33483 44.9784C8.5209 44.1326 8.47761 42.8086 9.23456 41.9114C9.90841 41.1128 10.3125 40.0858 10.3125 38.9584C10.3125 36.4271 8.26043 34.3751 5.72913 34.3751C5.57497 34.3751 5.4227 34.3827 5.27259 34.3975C4.1045 34.5123 3.0385 33.7259 2.8033 32.576C2.46755 30.9345 2.29163 29.2367 2.29163 27.5001C2.29163 24.869 2.6955 22.3279 3.44629 19.9377C3.74992 18.971 4.65226 18.3185 5.66535 18.333L5.72913 18.3334C8.26043 18.3334 10.3125 16.2814 10.3125 13.7501C10.3125 13.0193 10.1431 12.3346 9.84353 11.727C9.39587 10.819 9.59707 9.72479 10.3385 9.03541C13.2517 6.32662 16.81 4.29696 20.7608 3.20332ZM14.594 11.411C14.791 12.1589 14.8958 12.9433 14.8958 13.7501C14.8958 18.2345 11.6757 21.9668 7.42153 22.7609C7.0643 24.2808 6.87496 25.8671 6.87496 27.5001C6.87496 28.306 6.92106 29.1002 7.01064 29.8806C11.4666 30.504 14.8958 34.3308 14.8958 38.9584C14.8958 40.4234 14.5509 41.8104 13.9385 43.0401C15.6573 44.5415 17.6262 45.7615 19.7732 46.6296C21.4009 44.0849 24.2513 42.3959 27.5 42.3959C30.7486 42.3959 33.599 44.0849 35.2267 46.6296C37.3738 45.7615 39.3426 44.5415 41.0614 43.0401C40.449 41.8104 40.1041 40.4234 40.1041 38.9584C40.1041 34.3308 43.5334 30.504 47.9893 29.8806C48.0789 29.1002 48.125 28.306 48.125 27.5001C48.125 25.8671 47.9356 24.2808 47.5784 22.7609C43.3243 21.9668 40.1041 18.2345 40.1041 13.7501C40.1041 12.9433 40.2089 12.1589 40.4059 11.411C38.6694 10.016 36.7036 8.8973 34.5751 8.12001C32.8956 10.1565 30.3511 11.4585 27.5 11.4585C24.6489 11.4585 22.1043 10.1565 20.4248 8.12001C18.2963 8.8973 16.3305 10.016 14.594 11.411Z" fill="white"/>
<path fill-rule="evenodd" clip-rule="evenodd" d="M17.1875 27.5C17.1875 21.8046 21.8046 17.1875 27.5 17.1875C33.1954 17.1875 37.8125 21.8046 37.8125 27.5C37.8125 33.1954 33.1954 37.8125 27.5 37.8125C21.8046 37.8125 17.1875 33.1954 17.1875 27.5ZM27.5 21.7708C24.3359 21.7708 21.7708 24.3359 21.7708 27.5C21.7708 30.6641 24.3359 33.2292 27.5 33.2292C30.6641 33.2292 33.2292 30.6641 33.2292 27.5C33.2292 24.3359 30.6641 21.7708 27.5 21.7708Z" fill="white"/>
</g>
<defs>
<filter id="filter0_i_1_41" x="0" y="0" width="55" height="59" filterUnits="userSpaceOnUse" color-interpolation-filters="sRGB">
<feFlood flood-opacity="0" result="BackgroundImageFix"/>
<feBlend mode="normal" in="SourceGraphic" in2="BackgroundImageFix" result="shape"/>
<feColorMatrix in="SourceAlpha" type="matrix" values="0 0 0 0 0 0 0 0 0 0 0 0 0 0 0 0 0 0 127 0" result="hardAlpha"/>
<feOffset dy="4"/>
<feGaussianBlur stdDeviation="2"/>
<feComposite in2="hardAlpha" operator="arithmetic" k2="-1" k3="1"/>
<feColorMatrix type="matrix" values="0 0 0 0 0 0 0 0 0 0 0 0 0 0 0 0 0 0 0.7 0"/>
<feBlend mode="normal" in2="shape" result="effect1_innerShadow_1_41"/>
</filter>
</defs>
</symbol>



<symbol id="Sun" width="40" height="40" viewBox="0 0 40 40" fill="none" xmlns="http://www.w3.org/2000/svg">
<path fill-rule="evenodd" clip-rule="evenodd" d="M7.5 20C7.5 13.0964 13.0964 7.5 20 7.5C26.9036 7.5 32.5 13.0964 32.5 20C32.5 26.9036 26.9036 32.5 20 32.5C13.0964 32.5 7.5 26.9036 7.5 20ZM20 10.8333C14.9374 10.8333 10.8333 14.9374 10.8333 20C10.8333 25.0626 14.9374 29.1667 20 29.1667C25.0626 29.1667 29.1667 25.0626 29.1667 20C29.1667 14.9374 25.0626 10.8333 20 10.8333Z" fill="white"/>
<path d="M20 5.00004C21.1505 5.00004 22.0833 4.0673 22.0833 2.91671C22.0833 1.76612 21.1505 0.833374 20 0.833374C18.8494 0.833374 17.9166 1.76612 17.9166 2.91671C17.9166 4.0673 18.8494 5.00004 20 5.00004Z" fill="white"/>
<path d="M32.0833 10C33.2339 10 34.1667 9.06729 34.1667 7.91671C34.1667 6.76612 33.2339 5.83337 32.0833 5.83337C30.9327 5.83337 30 6.76612 30 7.91671C30 9.06729 30.9327 10 32.0833 10Z" fill="white"/>
<path d="M37.0833 22.0833C38.2339 22.0833 39.1667 21.1505 39.1667 20C39.1667 18.8494 38.2339 17.9166 37.0833 17.9166C35.9327 17.9166 35 18.8494 35 20C35 21.1505 35.9327 22.0833 37.0833 22.0833Z" fill="white"/>
<path d="M32.0833 34.1667C33.2339 34.1667 34.1667 33.2339 34.1667 32.0833C34.1667 30.9327 33.2339 30 32.0833 30C30.9327 30 30 30.9327 30 32.0833C30 33.2339 30.9327 34.1667 32.0833 34.1667Z" fill="white"/>
<path d="M20 39.1667C21.1505 39.1667 22.0833 38.2339 22.0833 37.0833C22.0833 35.9327 21.1505 35 20 35C18.8494 35 17.9166 35.9327 17.9166 37.0833C17.9166 38.2339 18.8494 39.1667 20 39.1667Z" fill="white"/>
<path d="M7.91671 34.1667C9.06729 34.1667 10 33.2339 10 32.0833C10 30.9327 9.06729 30 7.91671 30C6.76612 30 5.83337 30.9327 5.83337 32.0833C5.83337 33.2339 6.76612 34.1667 7.91671 34.1667Z" fill="white"/>
<path d="M2.91671 22.0833C4.0673 22.0833 5.00004 21.1505 5.00004 20C5.00004 18.8494 4.0673 17.9166 2.91671 17.9166C1.76612 17.9166 0.833374 18.8494 0.833374 20C0.833374 21.1505 1.76612 22.0833 2.91671 22.0833Z" fill="white"/>
<path d="M7.91671 10C9.06729 10 10 9.06729 10 7.91671C10 6.76612 9.06729 5.83337 7.91671 5.83337C6.76612 5.83337 5.83337 6.76612 5.83337 7.91671C5.83337 9.06729 6.76612 10 7.91671 10Z" fill="white"/>
</symbol>

<symbol id="Line" width="9" height="948" viewBox="0 0 9 948" fill="none" xmlns="http://www.w3.org/2000/svg">
<g filter="url(#filter0_i_1_37)">
<rect width="9" height="948" rx="4.5" fill="white"/>
</g>
<defs>
<filter id="filter0_i_1_37" x="0" y="0" width="11" height="952" filterUnits="userSpaceOnUse" color-interpolation-filters="sRGB">
<feFlood flood-opacity="0" result="BackgroundImageFix"/>
<feBlend mode="normal" in="SourceGraphic" in2="BackgroundImageFix" result="shape"/>
<feColorMatrix in="SourceAlpha" type="matrix" values="0 0 0 0 0 0 0 0 0 0 0 0 0 0 0 0 0 0 127 0" result="hardAlpha"/>
<feOffset dx="2" dy="4"/>
<feGaussianBlur stdDeviation="2"/>
<feComposite in2="hardAlpha" operator="arithmetic" k2="-1" k3="1"/>
<feColorMatrix type="matrix" values="0 0 0 0 0 0 0 0 0 0 0 0 0 0 0 0 0 0 0.25 0"/>
<feBlend mode="normal" in2="shape" result="effect1_innerShadow_1_37"/>
</filter>
</defs>
</symbol>




</svg>